#Comment line ignore any data following # character 
#Hierarchical Translation and Rotation (.htr) file 
[Header]	
#Header keywords are followed by a single value 
FileType HTR		#Single word string
DataType HTRS		#Translation followed by rotation and scale data
FileVersion 1		#integer
NumSegments 64		#integer
NumFrames 3		#integer
DataFrameRate 30		#integer, data frame rate in this file
EulerRotationOrder ZYX
CalibrationUnits mm
RotationUnits Degrees
GlobalAxisofGravity Y
BoneLengthAxis Y
ScaleFactor 1.00
[SegmentNames&Hierarchy]
#CHILD	PARENT
Pinger_Root GLOBAL
Pelvis Pinger_Root
L_Hip Pelvis
R_Hip Pelvis
Rear_Leg01 Pelvis
Spine1 Pelvis
L_Leg01 L_Hip
L_Leg02 L_Leg01
L_Leg03 L_Leg02
L_Foot L_Leg03
L_Toe1_01 L_Foot
L_Toe2_01 L_Foot
L_Toe3_01 L_Foot
planeAlignerLeft L_Foot
L_Toe1_02 L_Toe1_01
L_Toe1_03 L_Toe1_02
L_Toe2_02 L_Toe2_01
L_Toe2_03 L_Toe2_02
L_Toe3_02 L_Toe3_01
L_Toe3_03 L_Toe3_02
planeLockWeightLeft planeAlignerLeft
R_Leg01 R_Hip
R_Leg02 R_Leg01
R_Leg03 R_Leg02
R_Foot R_Leg03
planeAlignerRight R_Foot
R_Toe1_01 R_Foot
R_Toe2_01 R_Foot
R_Toe3_01 R_Foot
planeLockWeightRight planeAlignerRight
R_Toe1_02 R_Toe1_01
R_Toe1_03 R_Toe1_02
R_Toe2_02 R_Toe2_01
R_Toe2_03 R_Toe2_02
R_Toe3_02 R_Toe3_01
R_Toe3_03 R_Toe3_02
Rear_Leg02 Rear_Leg01
Rear_Leg03 Rear_Leg02
Rear_Leg04 Rear_Leg03
Rear_Foot Rear_Leg04
planeAlignerCenter Rear_Foot
Rear_Toe1_01 Rear_Foot
Rear_Toe2_01 Rear_Foot
Rear_Toe3_01 Rear_Foot
planeLockWeightCenter planeAlignerCenter
Rear_Toe1_02 Rear_Toe1_01
Rear_Toe1_03 Rear_Toe1_02
Rear_Toe2_02 Rear_Toe2_01
Rear_Toe2_03 Rear_Toe2_02
Rear_Toe3_02 Rear_Toe3_01
Rear_Toe3_03 Rear_Toe3_02
Back_Bone Spine1
Head Spine1
Motor_Bone Back_Bone
Ping_Mechanism Back_Bone
BN_LookIK Head
bottomMouth Head
L_Mouth01 Head
L_mouthFront Head
mouthGun Head
R_Mouth01 Head
R_mouthFront Head
TopMouth Head
weapon_bone Head
[BasePosition]
#SegmentName Tx, Ty, Tz, Rx, Ry, Rz, BoneLength
Pinger_Root 0.000000 0.000000 0.000000 -90.000000 0.000000 0.000000 10.000000 
Pelvis 0.000000 0.000000 0.000000 0.000000 0.000000 0.000000 10.000000 
L_Hip 0.000000 0.000000 0.000000 0.000000 0.000000 0.000000 10.000000 
R_Hip 0.000000 0.000000 0.000000 0.000000 0.000000 0.000000 10.000000 
Rear_Leg01 0.000000 0.000000 0.000000 0.000000 0.000000 0.000000 10.000000 
Spine1 0.000000 0.000000 0.000000 0.000000 0.000000 0.000000 10.000000 
L_Leg01 0.000000 0.000000 0.000000 0.000000 0.000000 0.000000 10.000000 
L_Leg02 0.000000 0.000000 0.000000 0.000000 0.000000 0.000000 10.000000 
L_Leg03 0.000000 0.000000 0.000000 0.000000 0.000000 0.000000 10.000000 
L_Foot 0.000000 0.000000 0.000000 0.000000 0.000000 0.000000 10.000000 
L_Toe1_01 0.000000 0.000000 0.000000 0.000000 0.000000 0.000000 10.000000 
L_Toe2_01 0.000000 0.000000 0.000000 0.000000 0.000000 0.000000 10.000000 
L_Toe3_01 0.000000 0.000000 0.000000 0.000000 0.000000 0.000000 10.000000 
planeAlignerLeft 0.000000 0.000000 0.000000 0.000000 0.000000 0.000000 10.000000 
L_Toe1_02 0.000000 0.000000 0.000000 0.000000 0.000000 0.000000 10.000000 
L_Toe1_03 0.000000 0.000000 0.000000 0.000000 0.000000 0.000000 10.000000 
L_Toe2_02 0.000000 0.000000 0.000000 0.000000 0.000000 0.000000 10.000000 
L_Toe2_03 0.000000 0.000000 0.000000 0.000000 0.000000 0.000000 10.000000 
L_Toe3_02 0.000000 0.000000 0.000000 0.000000 0.000000 0.000000 10.000000 
L_Toe3_03 0.000000 0.000000 0.000000 0.000000 0.000000 0.000000 10.000000 
planeLockWeightLeft 0.000000 0.000000 0.000000 0.000000 0.000000 0.000000 10.000000 
R_Leg01 0.000000 0.000000 0.000000 0.000000 0.000000 0.000000 10.000000 
R_Leg02 0.000000 0.000000 0.000000 0.000000 0.000000 0.000000 10.000000 
R_Leg03 0.000000 0.000000 0.000000 0.000000 0.000000 0.000000 10.000000 
R_Foot 0.000000 0.000000 0.000000 0.000000 0.000000 0.000000 10.000000 
planeAlignerRight 0.000000 0.000000 0.000000 0.000000 0.000000 0.000000 10.000000 
R_Toe1_01 0.000000 0.000000 0.000000 0.000000 0.000000 0.000000 10.000000 
R_Toe2_01 0.000000 0.000000 0.000000 0.000000 0.000000 0.000000 10.000000 
R_Toe3_01 0.000000 0.000000 0.000000 0.000000 0.000000 0.000000 10.000000 
planeLockWeightRight 0.000000 0.000000 0.000000 0.000000 0.000000 0.000000 10.000000 
R_Toe1_02 0.000000 0.000000 0.000000 0.000000 0.000000 0.000000 10.000000 
R_Toe1_03 0.000000 0.000000 0.000000 0.000000 0.000000 0.000000 10.000000 
R_Toe2_02 0.000000 0.000000 0.000000 0.000000 0.000000 0.000000 10.000000 
R_Toe2_03 0.000000 0.000000 0.000000 0.000000 0.000000 0.000000 10.000000 
R_Toe3_02 0.000000 0.000000 0.000000 0.000000 0.000000 0.000000 10.000000 
R_Toe3_03 0.000000 0.000000 0.000000 0.000000 0.000000 0.000000 10.000000 
Rear_Leg02 0.000000 0.000000 0.000000 0.000000 0.000000 0.000000 10.000000 
Rear_Leg03 0.000000 0.000000 0.000000 0.000000 0.000000 0.000000 10.000000 
Rear_Leg04 0.000000 0.000000 0.000000 0.000000 0.000000 0.000000 10.000000 
Rear_Foot 0.000000 0.000000 0.000000 0.000000 0.000000 0.000000 10.000000 
planeAlignerCenter 0.000000 0.000000 0.000000 0.000000 0.000000 0.000000 10.000000 
Rear_Toe1_01 0.000000 0.000000 0.000000 0.000000 0.000000 0.000000 10.000000 
Rear_Toe2_01 0.000000 0.000000 0.000000 0.000000 0.000000 0.000000 10.000000 
Rear_Toe3_01 0.000000 0.000000 0.000000 0.000000 0.000000 0.000000 10.000000 
planeLockWeightCenter 0.000000 0.000000 0.000000 0.000000 0.000000 0.000000 10.000000 
Rear_Toe1_02 0.000000 0.000000 0.000000 0.000000 0.000000 0.000000 10.000000 
Rear_Toe1_03 0.000000 0.000000 0.000000 0.000000 0.000000 0.000000 10.000000 
Rear_Toe2_02 0.000000 0.000000 0.000000 0.000000 0.000000 0.000000 10.000000 
Rear_Toe2_03 0.000000 0.000000 0.000000 0.000000 0.000000 0.000000 10.000000 
Rear_Toe3_02 0.000000 0.000000 0.000000 0.000000 0.000000 0.000000 10.000000 
Rear_Toe3_03 0.000000 0.000000 0.000000 0.000000 0.000000 0.000000 10.000000 
Back_Bone 0.000000 0.000000 0.000000 0.000000 0.000000 0.000000 10.000000 
Head 0.000000 0.000000 0.000000 0.000000 0.000000 0.000000 10.000000 
Motor_Bone 0.000000 0.000000 0.000000 0.000000 0.000000 0.000000 10.000000 
Ping_Mechanism 0.000000 0.000000 0.000000 0.000000 0.000000 0.000000 10.000000 
BN_LookIK 0.000000 0.000000 0.000000 0.000000 0.000000 0.000000 10.000000 
bottomMouth 0.000000 0.000000 0.000000 0.000000 0.000000 0.000000 10.000000 
L_Mouth01 0.000000 0.000000 0.000000 0.000000 0.000000 0.000000 10.000000 
L_mouthFront 0.000000 0.000000 0.000000 0.000000 0.000000 0.000000 10.000000 
mouthGun 0.000000 0.000000 0.000000 0.000000 0.000000 0.000000 10.000000 
R_Mouth01 0.000000 0.000000 0.000000 0.000000 0.000000 0.000000 10.000000 
R_mouthFront 0.000000 0.000000 0.000000 0.000000 0.000000 0.000000 10.000000 
TopMouth 0.000000 0.000000 0.000000 0.000000 0.000000 0.000000 10.000000 
weapon_bone 0.000000 0.000000 0.000000 0.000000 0.000000 0.000000 10.000000 
#Beginning of Data. Separated by tabs
#Fr	Tx	Ty	Tz	Rx	Ry	Rz	SF
[Pinger_Root]
16 -0.000011 -1333.819580 0.000000 -0.000075 -0.000000 -0.000020 1333.819580
17 -0.000011 -1426.472412 0.000000 -0.000075 -0.000000 -0.000020 1426.472412
18 -0.000012 -1517.609985 0.000000 -0.000075 -0.000000 -0.000020 1517.609985
[Pelvis]
16 -236.823654 605.155762 4581.821289 35.082531 -74.096977 -33.287788 4627.676270
17 -240.136093 622.499023 4591.530273 33.811321 -73.223961 -30.330029 4639.754395
18 -240.656052 643.549377 4616.570313 33.645206 -72.684181 -28.378218 4667.418457
[L_Hip]
16 5.766392 125.831482 872.656799 -178.253296 -81.787666 87.381149 881.701050
17 5.766392 125.831482 872.656799 -178.253342 -81.787758 87.381340 881.701050
18 5.766392 125.831482 872.656799 -178.253311 -81.787712 87.381248 881.701050
[R_Hip]
16 5.765438 125.836372 -872.654907 -1.746701 81.787666 87.381149 881.699829
17 5.765438 125.836372 -872.654907 -1.746678 81.787712 87.381248 881.699829
18 5.765438 125.836372 -872.654907 -1.746713 81.787666 87.381149 881.699829
[Rear_Leg01]
16 -192.298416 -925.602966 -0.001907 134.249420 -0.016195 -149.912796 945.367432
17 -192.298416 -925.602966 -0.001907 135.288803 2.007675 -146.476837 945.367432
18 -192.298416 -925.602966 -0.001907 137.410721 3.850379 -142.259644 945.367432
[Spine1]
16 290.604584 5.007505 0.000477 -6.214365 -10.055787 39.603809 290.647736
17 290.604584 5.007505 0.000477 -8.302499 -9.953531 39.009796 290.647736
18 290.604584 5.007505 0.000477 -10.390203 -9.872686 38.412792 290.647736
[L_Leg01]
16 761.932007 -0.002384 -0.069261 71.492973 -27.749912 -84.262573 761.932068
17 761.932007 -0.002384 -0.069261 72.006508 -27.440481 -86.082054 761.932068
18 761.932007 -0.002384 -0.069261 72.507263 -27.116766 -87.893143 761.932068
[L_Leg02]
16 1441.140503 -0.000954 -0.000715 -1.012485 0.458429 -115.764702 1441.140503
17 1441.140503 -0.000954 -0.000715 -1.158266 0.505723 -112.844521 1441.140503
18 1441.140503 -0.000954 -0.000715 -1.275799 0.546924 -109.168907 1441.140503
[L_Leg03]
16 1686.963989 -0.000715 -0.000954 0.043632 -0.010432 98.943871 1686.963989
17 1686.963989 -0.000715 -0.000954 0.043625 -0.010462 99.021942 1686.963989
18 1686.963989 -0.000715 -0.000954 0.043655 -0.010335 98.689865 1686.963989
[L_Foot]
16 3041.570068 -30.715107 11.297464 -10.267553 14.597653 64.250351 3041.746094
17 3041.570068 -30.715107 11.297464 -9.750069 13.408136 61.972069 3041.746094
18 3041.570068 -30.715107 11.297464 -9.187025 12.239515 59.693554 3041.746094
[L_Toe1_01]
16 -188.216690 -224.732346 -21.137953 89.249046 -1.891961 -159.979370 293.899567
17 -188.216690 -224.732346 -21.137953 89.230515 -1.862870 -159.492874 293.899567
18 -188.216690 -224.732346 -21.137953 89.212242 -1.833623 -159.006424 293.899567
[L_Toe2_01]
16 200.746536 -219.926590 148.838394 -77.202454 -13.337566 -46.723969 332.896027
17 200.746536 -219.926590 148.838394 -77.120621 -13.311748 -47.067780 332.896027
18 200.746536 -219.926590 148.838394 -77.038963 -13.285454 -47.411484 332.896027
[L_Toe3_01]
16 188.832520 -219.859131 -191.078659 -106.663918 16.531565 -48.666088 347.140900
17 188.832520 -219.859131 -191.078659 -106.773277 16.510509 -49.022491 347.140900
18 188.832520 -219.859131 -191.078659 -106.882484 16.488802 -49.378792 347.140900
[planeAlignerLeft]
16 -63.289612 -647.500977 0.070877 0.000000 -89.951546 -90.041489 650.586731
17 -66.053856 -652.036804 0.070190 0.000000 -89.951546 -90.044144 655.374023
18 -68.818100 -656.572632 0.069504 0.000000 -89.951546 -90.046806 660.169373
[L_Toe1_02]
16 413.761139 0.000477 0.000000 0.001394 -24.644289 0.001394 413.761139
17 413.761139 0.000477 0.000000 0.001394 -24.735502 0.001394 413.761139
18 413.761139 0.000477 0.000000 0.001393 -24.826715 0.001393 413.761139
[L_Toe1_03]
16 464.317322 0.000358 -0.000089 0.006678 69.732788 0.006678 464.317322
17 464.317322 0.000358 -0.000089 0.006410 68.876930 0.006410 464.317322
18 464.317322 0.000358 -0.000089 0.006164 68.021042 0.006164 464.317322
[L_Toe2_02]
16 342.235809 -0.000477 0.000238 0.001179 -78.585403 0.001179 342.235809
17 342.235809 -0.000477 0.000238 0.001179 -78.551468 0.001179 342.235809
18 342.235809 -0.000477 0.000238 0.001180 -78.517578 0.001180 342.235809
[L_Toe2_03]
16 420.210846 -0.000715 0.000000 -179.998001 72.478683 -179.994461 420.210846
17 420.210846 -0.000715 0.000000 -179.997986 72.504204 -179.994461 420.210846
18 420.210846 -0.000715 0.000000 -179.997925 72.753006 -179.994400 420.210846
[L_Toe3_02]
16 329.270111 0.000954 0.000000 0.001176 -82.174461 0.001176 329.270111
17 329.270111 0.000954 0.000000 0.001176 -82.114418 0.001176 329.270111
18 329.270111 0.000954 0.000000 0.001176 -82.054291 0.001176 329.270111
[L_Toe3_03]
16 439.137451 -0.001907 0.000954 -179.998322 70.838745 -179.994781 439.137451
17 439.137451 -0.001907 0.000954 -179.998291 71.058144 -179.994736 439.137451
18 439.137451 -0.001907 0.000954 -179.998245 71.277550 -179.994690 439.137451
[planeLockWeightLeft]
16 1000.000488 -0.000305 -0.000235 -0.011826 -0.004376 0.005620 1000.000488
17 1000.000488 -0.000305 -0.000234 -0.011826 -0.004376 0.005620 1000.000488
18 1000.000488 -0.000305 -0.000233 -0.011826 -0.004376 0.005620 1000.000488
[R_Leg01]
16 761.455627 -0.001907 -0.000358 88.979980 -53.053959 54.150177 761.455688
17 761.455627 -0.001907 -0.000358 86.504395 -44.704845 53.180542 761.455688
18 761.455627 -0.001907 -0.000358 84.582138 -34.211872 51.877068 761.455688
[R_Leg02]
16 1441.140625 0.000000 -0.000238 -1.023449 -0.243839 -154.151260 1441.140625
17 1441.140625 0.000000 -0.000238 -1.219154 -0.459499 -155.890625 1441.140625
18 1441.140625 0.000000 -0.000238 -1.362714 -0.737939 -154.979965 1441.140625
[R_Leg03]
16 1686.963989 0.000954 0.001431 0.069897 -0.039950 129.490463 1686.963989
17 1686.963989 0.000954 0.001431 0.099530 -0.058283 136.746719 1686.963989
18 1686.963989 0.000954 0.001431 0.126611 -0.080213 144.002960 1686.963989
[R_Foot]
16 3041.560059 -30.531288 -11.204481 21.609640 -31.727602 46.964382 3041.734131
17 3041.560059 -30.531288 -11.204481 25.088577 -32.906181 43.276978 3041.734131
18 3041.560059 -30.531288 -11.204481 28.849064 -33.678898 38.813290 3041.734131
[planeAlignerRight]
16 -219.062775 -755.950439 64.155106 0.000000 -89.951546 -90.033577 789.661621
17 -229.863449 -759.358154 60.063087 0.000000 -89.937447 -90.035477 795.656677
18 -240.664185 -762.765808 55.971054 0.000000 -89.937447 -90.037376 801.787842
[R_Toe1_01]
16 -188.383347 -224.864899 21.052242 91.319908 1.493107 -141.746185 294.101532
17 -188.383347 -224.864899 21.052242 91.453857 0.802963 -142.867371 294.101532
18 -188.383347 -224.864899 21.052242 91.448204 0.745702 -143.556824 294.101532
[R_Toe2_01]
16 200.637817 -220.002121 -148.787384 -106.795219 5.091760 -75.500092 332.857574
17 200.637817 -220.002121 -148.787384 -107.170067 3.905885 -81.147148 332.857574
18 200.637817 -220.002121 -148.787384 -107.219032 4.377899 -81.589264 332.857574
[R_Toe3_01]
16 188.606735 -220.092957 191.126343 -67.188087 -16.364223 -78.615662 347.192566
17 188.606735 -220.092957 191.126343 -66.911385 -14.175110 -83.702812 347.192566
18 188.606735 -220.092957 191.126343 -66.933578 -13.713015 -83.916603 347.192566
[planeLockWeightRight]
16 0.000000 0.000000 0.000000 -0.011823 -0.004379 -0.000027 0.000000
17 0.000000 0.000000 0.000000 -0.011823 -0.004379 -0.000027 0.000000
18 0.000000 0.000000 0.000000 -0.011823 -0.004379 -0.000027 0.000000
[R_Toe1_02]
16 413.762085 0.000477 -0.000119 0.001420 -21.499502 0.001420 413.762085
17 413.762085 0.000477 -0.000119 0.001422 -21.257965 0.001422 413.762085
18 413.762085 0.000477 -0.000119 0.001424 -21.016426 0.001424 413.762085
[R_Toe1_03]
16 464.317810 0.000000 0.001088 -0.014716 84.918777 -0.011216 464.317810
17 464.317810 0.000000 0.001088 -0.020593 86.504250 -0.017094 464.317810
18 464.317810 0.000000 0.001088 -0.022138 86.769348 -0.018640 464.317810
[R_Toe2_02]
16 342.234741 -0.000954 0.000238 -0.002331 -80.824936 -0.002331 342.234741
17 342.234741 -0.000954 0.000238 -0.002331 -80.806206 -0.002331 342.234741
18 342.234741 -0.000954 0.000238 -0.002331 -80.787437 -0.002331 342.234741
[R_Toe2_03]
16 420.210846 0.000715 -0.000268 -179.996475 49.184269 179.999786 420.210846
17 420.210846 0.000715 -0.000268 -179.996475 49.782921 179.999817 420.210846
18 420.210846 0.000715 -0.000268 -179.996445 50.381607 179.999847 420.210846
[R_Toe3_02]
16 329.270355 -0.000477 -0.000954 0.001175 -84.297005 0.001175 329.270355
17 329.270355 -0.000477 -0.000954 0.001175 -84.381439 0.001175 329.270355
18 329.270355 -0.000477 -0.000954 0.001175 -84.466003 0.001175 329.270355
[R_Toe3_03]
16 439.137939 0.000238 0.001431 -179.996521 52.205181 -179.989136 439.137939
17 439.137939 0.000238 0.001431 -179.996567 51.985008 -179.989182 439.137939
18 439.137939 0.000238 0.001431 -179.996506 52.309162 -179.989120 439.137939
[Rear_Leg02]
16 1162.777710 -0.029802 0.005960 -33.659649 40.593086 -163.533890 1162.777710
17 1162.777710 -0.029802 0.005960 -41.056347 43.580055 -164.780258 1162.777710
18 1162.777710 -0.029802 0.005960 -46.446308 46.498943 -162.541702 1162.777710
[Rear_Leg03]
16 607.192505 -0.013351 -0.073195 0.010283 -0.005515 72.762016 607.192505
17 607.192505 -0.013351 -0.073195 0.010226 -0.005619 73.933624 607.192505
18 607.192505 -0.013351 -0.073195 0.010196 -0.005675 74.558289 607.192505
[Rear_Leg04]
16 995.874512 -0.020504 -0.011921 -0.041674 -0.015240 77.187645 995.874573
17 995.874512 -0.020504 -0.011921 -0.045257 -0.017894 80.271080 995.874573
18 995.874512 -0.020504 -0.011921 -0.045598 -0.017007 82.508507 995.874573
[Rear_Foot]
16 3096.176270 -0.067472 -0.041425 78.899467 48.335281 -86.130898 3096.176270
17 3096.176270 -0.067472 -0.041425 77.038582 42.514103 -89.761742 3096.176270
18 3096.176270 -0.067472 -0.041425 76.538696 37.370846 -92.672279 3096.176270
[planeAlignerCenter]
16 8.199046 -124.189323 -671.232849 0.001958 -0.001295 156.964752 682.673950
17 18.937157 -132.326736 -682.304749 0.001972 -0.001273 155.701492 695.276001
18 23.399885 -135.439423 -695.194031 0.001977 -0.001266 155.261185 708.650879
[Rear_Toe1_01]
16 0.653352 83.966492 -371.173737 -2.138933 14.503830 61.590473 380.553192
17 0.653352 83.966492 -371.173737 -2.630044 15.327415 59.276249 380.553192
18 0.653352 83.966492 -371.173737 -2.880520 16.280146 58.417599 380.553192
[Rear_Toe2_01]
16 178.200760 -294.826019 -362.060547 -2.517481 40.821548 -101.636261 499.765686
17 178.200760 -294.826019 -362.060547 -2.327496 40.653053 -102.313110 499.765686
18 178.200760 -294.826019 -362.060547 -2.287507 40.860260 -102.513229 499.765686
[Rear_Toe3_01]
16 -153.359680 -308.780914 -362.060852 -1.361836 43.628742 -136.631088 499.952881
17 -153.359680 -308.780914 -362.060852 -1.172003 44.220596 -137.351883 499.952881
18 -153.359680 -308.780914 -362.060852 -1.237970 45.030651 -137.581146 499.952881
[planeLockWeightCenter]
16 1000.000244 0.000352 -0.000056 -0.011814 -0.004373 -0.000015 1000.000244
17 1000.000244 0.000358 -0.000056 -0.011814 -0.004373 -0.000015 1000.000244
18 1000.000244 0.000364 -0.000057 -0.011814 -0.004373 -0.000015 1000.000244
[Rear_Toe1_02]
16 379.707825 0.194073 0.000477 -0.006682 -31.145103 -0.006682 379.707855
17 379.707825 0.194073 0.000477 -0.006677 -31.296614 -0.006677 379.707855
18 379.707825 0.194073 0.000477 -0.006672 -31.448132 -0.006672 379.707855
[Rear_Toe1_03]
16 500.129700 0.165701 0.000119 -179.993164 76.999084 -179.996689 500.129761
17 500.129700 0.165701 0.000119 -179.992935 77.593132 -179.996445 500.129761
18 500.129700 0.165701 0.000119 -179.992523 78.477951 -179.996033 500.129761
[Rear_Toe2_02]
16 340.494507 0.000238 -0.000954 0.001216 -59.752655 0.001216 340.494507
17 340.494507 0.000238 -0.000954 0.001223 -57.196461 0.001223 340.494507
18 340.494507 0.000238 -0.000954 0.001228 -55.619473 0.001228 340.494507
[Rear_Toe2_03]
16 433.103577 0.000000 0.000238 0.003989 55.779835 0.003989 433.103546
17 433.103577 0.000000 0.000238 0.003665 52.646191 0.003665 433.103546
18 433.103577 0.000000 0.000238 0.003492 50.722851 0.003492 433.103546
[Rear_Toe3_02]
16 340.494141 -0.000358 -0.000477 0.001188 -71.956207 0.001188 340.494171
17 340.494141 -0.000358 -0.000477 0.001189 -71.533829 0.001189 340.494171
18 340.494141 -0.000358 -0.000477 0.001190 -71.111473 0.001190 340.494171
[Rear_Toe3_03]
16 433.103577 0.001431 -0.000238 0.007934 72.987289 0.007934 433.103546
17 433.103577 0.001431 -0.000238 0.007698 72.461281 0.007698 433.103546
18 433.103577 0.001431 -0.000238 0.007412 71.777603 0.007412 433.103546
[Back_Bone]
16 1312.175781 -701.934692 0.000954 1.302103 -3.661989 -83.755753 1488.125488
17 1312.175781 -701.934692 0.000954 1.795295 -3.651017 -86.244919 1488.125488
18 1312.175781 -701.934692 0.000954 2.121208 -3.650540 -87.370285 1488.125488
[Head]
16 1406.159424 809.709290 0.001431 -2.650774 -0.898209 4.327586 1622.625488
17 1406.159424 809.709290 0.001431 -2.311824 -1.181027 4.939329 1622.625488
18 1406.159424 809.709290 0.001431 -1.900187 -1.372470 4.912147 1622.625488
[Motor_Bone]
16 1158.364380 -417.834747 0.000477 0.001261 -0.033986 -106.021004 1231.419434
17 1158.364380 -417.834747 0.000477 2.853720 -2.893725 -108.876030 1231.419434
18 1158.364380 -417.834747 0.000477 5.387601 -1.836368 -107.820084 1231.419434
[Ping_Mechanism]
16 1187.506226 -396.750061 65.295258 0.000103 -0.000053 82.120995 1253.732422
17 1187.927612 -397.477814 70.498093 0.000103 -0.000053 82.120995 1254.643677
18 1188.349121 -398.205536 75.700935 0.000103 -0.000053 82.120995 1255.576294
[BN_LookIK]
16 193.241119 1380.371704 -0.002861 0.000000 89.965736 -31.038179 1393.832153
17 193.241119 1380.371704 -0.002861 0.000000 89.965736 -31.038179 1393.832153
18 193.241119 1380.371704 -0.002861 0.000000 89.965736 -31.038179 1393.832153
[bottomMouth]
16 -435.092926 615.759399 -0.000954 -0.000022 0.000016 73.527184 753.966492
17 -435.092926 615.759399 -0.000954 -0.000022 0.000016 73.527184 753.966492
18 -435.092926 615.759399 -0.000954 -0.000022 0.000016 73.527184 753.966492
[L_Mouth01]
16 554.440979 7.658243 838.222046 150.204178 23.759130 109.605339 1005.027161
17 554.440979 7.658243 838.222046 150.204178 23.759130 109.605339 1005.027161
18 554.440979 7.658243 838.222046 150.204178 23.759130 109.605339 1005.027161
[L_mouthFront]
16 551.629089 934.514771 339.150421 0.000081 2.804060 79.119301 1136.941284
17 551.629089 934.514771 339.150421 0.000081 2.804060 79.119301 1136.941284
18 551.629089 934.514771 339.150421 0.000081 2.804060 79.119301 1136.941284
[mouthGun]
16 55.332661 1627.420898 0.000000 0.000023 0.000009 -11.038128 1628.361328
17 55.332661 1627.420898 0.000000 0.000023 0.000009 -11.038128 1628.361328
18 55.332661 1627.420898 0.000000 0.000023 0.000009 -11.038128 1628.361328
[R_Mouth01]
16 554.442383 7.659197 -838.223938 29.795891 -23.759109 109.605331 1005.029541
17 554.442383 7.659197 -838.223938 29.795891 -23.759109 109.605331 1005.029541
18 554.442383 7.659197 -838.223938 29.795891 -23.759109 109.605331 1005.029541
[R_mouthFront]
16 551.629089 934.514282 -339.151367 0.000029 -2.803930 79.119133 1136.941162
17 551.629089 934.514282 -339.151367 0.000029 -2.803930 79.119133 1136.941162
18 551.629089 934.514282 -339.151367 0.000029 -2.803930 79.119133 1136.941162
[TopMouth]
16 461.269867 -56.106091 -0.008583 -0.000059 -0.000268 92.025169 464.669525
17 461.269867 -56.106091 -0.008583 -0.000059 -0.000268 92.025169 464.669525
18 461.269867 -56.106091 -0.008583 -0.000059 -0.000268 92.025169 464.669525
[weapon_bone]
16 -987.239868 1448.372803 0.001431 0.000000 89.965736 -31.038221 1752.833740
17 -987.239868 1448.372803 0.001431 0.000000 89.965736 -31.038221 1752.833740
18 -987.239868 1448.372803 0.001431 0.000000 89.965736 -31.038221 1752.833740
